<mxfile host="app.diagrams.net" modified="2022-07-30T20:53:11.644Z" agent="5.0 (Windows NT 10.0; Win64; x64) AppleWebKit/537.36 (KHTML, like Gecko) Chrome/103.0.5060.134 Safari/537.36 Edg/103.0.1264.71" etag="tS7GWsfFPn1ie20f-Ksj" version="16.6.6" type="github">
  <diagram id="R2lEEEUBdFMjLlhIrx00" name="Page-1">
    <mxGraphModel dx="1369" dy="620" grid="1" gridSize="10" guides="1" tooltips="1" connect="1" arrows="1" fold="1" page="1" pageScale="1" pageWidth="850" pageHeight="1100" math="0" shadow="0" extFonts="Permanent Marker^https://fonts.googleapis.com/css?family=Permanent+Marker">
      <root>
        <mxCell id="0" />
        <mxCell id="1" parent="0" />
        <mxCell id="RMPpi373Yn2uEKMOpAx1-3" value="&lt;table border=&quot;1&quot; width=&quot;100%&quot; cellpadding=&quot;4&quot; style=&quot;width: 100% ; height: 100% ; border-collapse: collapse&quot;&gt;&lt;tbody&gt;&lt;tr&gt;&lt;th align=&quot;center&quot;&gt;Weapon &lt;br&gt;&lt;/th&gt;&lt;/tr&gt;&lt;tr&gt;&lt;td&gt;&lt;div style=&quot;text-align: center&quot;&gt;&lt;span&gt;&amp;lt;&amp;lt;abstract&amp;gt;&amp;gt;&lt;/span&gt;&lt;/div&gt;- durability&lt;br&gt;- type&lt;/td&gt;&lt;/tr&gt;&lt;tr&gt;&lt;td&gt;action()&lt;/td&gt;&lt;/tr&gt;&lt;/tbody&gt;&lt;/table&gt;" style="text;html=1;strokeColor=none;fillColor=none;overflow=fill;" vertex="1" parent="1">
          <mxGeometry x="320" y="30" width="160" height="110" as="geometry" />
        </mxCell>
        <mxCell id="RMPpi373Yn2uEKMOpAx1-47" style="edgeStyle=none;shape=connector;rounded=0;orthogonalLoop=1;jettySize=auto;html=1;entryX=0.5;entryY=1;entryDx=0;entryDy=0;dashed=1;dashPattern=1 3;labelBackgroundColor=default;fontFamily=Helvetica;fontSize=11;fontColor=default;endArrow=none;strokeColor=default;strokeWidth=2;" edge="1" parent="1" source="RMPpi373Yn2uEKMOpAx1-4" target="RMPpi373Yn2uEKMOpAx1-23">
          <mxGeometry relative="1" as="geometry" />
        </mxCell>
        <mxCell id="RMPpi373Yn2uEKMOpAx1-4" value="&lt;table border=&quot;1&quot; width=&quot;100%&quot; cellpadding=&quot;4&quot; style=&quot;width: 100% ; height: 100% ; border-collapse: collapse&quot;&gt;&lt;tbody&gt;&lt;tr&gt;&lt;th align=&quot;center&quot;&gt;Armor&lt;br&gt;(Super Class)&lt;/th&gt;&lt;/tr&gt;&lt;tr&gt;&lt;td&gt;&lt;div style=&quot;text-align: center&quot;&gt;&lt;span&gt;&amp;lt;&amp;lt;abstract&amp;gt;&amp;gt;&lt;/span&gt;&lt;/div&gt;- durability&lt;br&gt;&lt;/td&gt;&lt;/tr&gt;&lt;tr&gt;&lt;td&gt;&amp;gt;&amp;gt;&amp;gt; deteriorate()&lt;/td&gt;&lt;/tr&gt;&lt;/tbody&gt;&lt;/table&gt;" style="text;html=1;strokeColor=none;fillColor=none;overflow=fill;" vertex="1" parent="1">
          <mxGeometry x="553" y="560" width="160" height="120" as="geometry" />
        </mxCell>
        <mxCell id="RMPpi373Yn2uEKMOpAx1-22" style="edgeStyle=orthogonalEdgeStyle;rounded=0;orthogonalLoop=1;jettySize=auto;html=1;exitX=0.5;exitY=1;exitDx=0;exitDy=0;" edge="1" parent="1">
          <mxGeometry relative="1" as="geometry">
            <mxPoint x="713" y="390" as="sourcePoint" />
            <mxPoint x="713" y="390" as="targetPoint" />
          </mxGeometry>
        </mxCell>
        <mxCell id="RMPpi373Yn2uEKMOpAx1-23" value="&lt;b&gt;Item Status&lt;br&gt;(Interface)&lt;/b&gt;&lt;br&gt;&lt;div style=&quot;text-align: left&quot;&gt;&lt;span&gt;#deteriorate()&lt;/span&gt;&lt;/div&gt;" style="rounded=0;whiteSpace=wrap;html=1;" vertex="1" parent="1">
          <mxGeometry x="573" y="430" width="120" height="60" as="geometry" />
        </mxCell>
        <mxCell id="RMPpi373Yn2uEKMOpAx1-34" style="edgeStyle=orthogonalEdgeStyle;rounded=0;orthogonalLoop=1;jettySize=auto;html=1;entryX=0.5;entryY=1;entryDx=0;entryDy=0;" edge="1" parent="1" source="RMPpi373Yn2uEKMOpAx1-24" target="RMPpi373Yn2uEKMOpAx1-3">
          <mxGeometry relative="1" as="geometry" />
        </mxCell>
        <mxCell id="RMPpi373Yn2uEKMOpAx1-24" value="&lt;table border=&quot;1&quot; width=&quot;100%&quot; cellpadding=&quot;4&quot; style=&quot;width: 100% ; height: 100% ; border-collapse: collapse&quot;&gt;&lt;tbody&gt;&lt;tr&gt;&lt;th align=&quot;center&quot;&gt;Gun&lt;br&gt;&lt;/th&gt;&lt;/tr&gt;&lt;tr&gt;&lt;td&gt;&lt;div style=&quot;text-align: center&quot;&gt;&lt;span&gt;&amp;lt;&amp;lt;abstract&amp;gt;&amp;gt;&lt;/span&gt;&lt;/div&gt;- bulletsAvailable&lt;br&gt;- magazineSize&lt;br&gt;- cartridgesAvailable&lt;/td&gt;&lt;/tr&gt;&lt;tr&gt;&lt;td&gt;reload()&lt;/td&gt;&lt;/tr&gt;&lt;/tbody&gt;&lt;/table&gt;" style="text;html=1;strokeColor=none;fillColor=none;overflow=fill;" vertex="1" parent="1">
          <mxGeometry x="201" y="190" width="160" height="120" as="geometry" />
        </mxCell>
        <mxCell id="RMPpi373Yn2uEKMOpAx1-42" style="edgeStyle=orthogonalEdgeStyle;rounded=0;orthogonalLoop=1;jettySize=auto;html=1;entryX=0.5;entryY=1;entryDx=0;entryDy=0;" edge="1" parent="1" source="RMPpi373Yn2uEKMOpAx1-25" target="RMPpi373Yn2uEKMOpAx1-3">
          <mxGeometry relative="1" as="geometry" />
        </mxCell>
        <mxCell id="RMPpi373Yn2uEKMOpAx1-49" style="edgeStyle=none;shape=connector;rounded=0;orthogonalLoop=1;jettySize=auto;html=1;entryX=0.5;entryY=0;entryDx=0;entryDy=0;dashed=1;dashPattern=1 3;labelBackgroundColor=default;fontFamily=Helvetica;fontSize=11;fontColor=default;endArrow=none;strokeColor=default;strokeWidth=2;exitX=0.5;exitY=1;exitDx=0;exitDy=0;" edge="1" parent="1" source="RMPpi373Yn2uEKMOpAx1-25" target="RMPpi373Yn2uEKMOpAx1-23">
          <mxGeometry relative="1" as="geometry" />
        </mxCell>
        <mxCell id="RMPpi373Yn2uEKMOpAx1-25" value="&lt;table border=&quot;1&quot; width=&quot;100%&quot; cellpadding=&quot;4&quot; style=&quot;width: 100% ; height: 100% ; border-collapse: collapse&quot;&gt;&lt;tbody&gt;&lt;tr&gt;&lt;th align=&quot;center&quot;&gt;MeleeWeapon&lt;br&gt;&lt;/th&gt;&lt;/tr&gt;&lt;tr&gt;&lt;td&gt;&lt;div style=&quot;text-align: center&quot;&gt;&lt;span&gt;&amp;lt;&amp;lt;abstract&amp;gt;&amp;gt;&lt;/span&gt;&lt;/div&gt;&lt;/td&gt;&lt;/tr&gt;&lt;tr&gt;&lt;td&gt;&amp;gt;&amp;gt;&amp;gt; deteriorate()&lt;br&gt;&lt;/td&gt;&lt;/tr&gt;&lt;/tbody&gt;&lt;/table&gt;" style="text;html=1;strokeColor=none;fillColor=none;overflow=fill;" vertex="1" parent="1">
          <mxGeometry x="480" y="190" width="140" height="100" as="geometry" />
        </mxCell>
        <mxCell id="RMPpi373Yn2uEKMOpAx1-36" style="edgeStyle=orthogonalEdgeStyle;rounded=0;orthogonalLoop=1;jettySize=auto;html=1;entryX=0.5;entryY=1;entryDx=0;entryDy=0;" edge="1" parent="1" source="RMPpi373Yn2uEKMOpAx1-26" target="RMPpi373Yn2uEKMOpAx1-24">
          <mxGeometry relative="1" as="geometry" />
        </mxCell>
        <mxCell id="RMPpi373Yn2uEKMOpAx1-48" style="edgeStyle=none;shape=connector;rounded=0;orthogonalLoop=1;jettySize=auto;html=1;entryX=0;entryY=0.5;entryDx=0;entryDy=0;dashed=1;dashPattern=1 3;labelBackgroundColor=default;fontFamily=Helvetica;fontSize=11;fontColor=default;endArrow=none;strokeColor=default;strokeWidth=2;exitX=1;exitY=0.5;exitDx=0;exitDy=0;" edge="1" parent="1" source="RMPpi373Yn2uEKMOpAx1-26" target="RMPpi373Yn2uEKMOpAx1-23">
          <mxGeometry relative="1" as="geometry" />
        </mxCell>
        <mxCell id="RMPpi373Yn2uEKMOpAx1-26" value="&lt;table border=&quot;1&quot; width=&quot;100%&quot; cellpadding=&quot;4&quot; style=&quot;width: 100% ; height: 100% ; border-collapse: collapse&quot;&gt;&lt;tbody&gt;&lt;tr&gt;&lt;th align=&quot;center&quot;&gt;Rifle&lt;/th&gt;&lt;/tr&gt;&lt;tr&gt;&lt;td&gt;&lt;div style=&quot;text-align: center&quot;&gt;&lt;span&gt;&amp;lt;&amp;lt;abstract&amp;gt;&amp;gt;&lt;/span&gt;&lt;/div&gt;- durability&lt;br&gt;- type&lt;/td&gt;&lt;/tr&gt;&lt;tr&gt;&lt;td&gt;&amp;gt;&amp;gt;&amp;gt; sound()&lt;br&gt;&amp;gt;&amp;gt;&amp;gt; deteriorate()&lt;br&gt;&lt;/td&gt;&lt;/tr&gt;&lt;/tbody&gt;&lt;/table&gt;" style="text;html=1;strokeColor=none;fillColor=none;overflow=fill;" vertex="1" parent="1">
          <mxGeometry x="213.5" y="447" width="135" height="120" as="geometry" />
        </mxCell>
        <mxCell id="RMPpi373Yn2uEKMOpAx1-63" style="edgeStyle=orthogonalEdgeStyle;shape=connector;rounded=0;orthogonalLoop=1;jettySize=auto;html=1;entryX=1;entryY=0.5;entryDx=0;entryDy=0;labelBackgroundColor=default;fontFamily=Helvetica;fontSize=11;fontColor=default;endArrow=classic;strokeColor=default;" edge="1" parent="1" source="RMPpi373Yn2uEKMOpAx1-27" target="RMPpi373Yn2uEKMOpAx1-24">
          <mxGeometry relative="1" as="geometry" />
        </mxCell>
        <mxCell id="RMPpi373Yn2uEKMOpAx1-27" value="&lt;table border=&quot;1&quot; width=&quot;100%&quot; cellpadding=&quot;4&quot; style=&quot;width: 100% ; height: 100% ; border-collapse: collapse&quot;&gt;&lt;tbody&gt;&lt;tr&gt;&lt;th align=&quot;center&quot;&gt;Shotgun&lt;/th&gt;&lt;/tr&gt;&lt;tr&gt;&lt;td&gt;&lt;div&gt;&lt;/div&gt;&lt;/td&gt;&lt;/tr&gt;&lt;tr&gt;&lt;td&gt;&amp;gt;&amp;gt;&amp;gt; sound()&lt;br&gt;&amp;gt;&amp;gt;&amp;gt; deteriorate()&lt;/td&gt;&lt;/tr&gt;&lt;/tbody&gt;&lt;/table&gt;" style="text;html=1;strokeColor=none;fillColor=none;overflow=fill;" vertex="1" parent="1">
          <mxGeometry x="361" y="350" width="130" height="80" as="geometry" />
        </mxCell>
        <mxCell id="RMPpi373Yn2uEKMOpAx1-62" style="edgeStyle=orthogonalEdgeStyle;shape=connector;rounded=0;orthogonalLoop=1;jettySize=auto;html=1;entryX=0;entryY=0.5;entryDx=0;entryDy=0;labelBackgroundColor=default;fontFamily=Helvetica;fontSize=11;fontColor=default;endArrow=classic;strokeColor=default;" edge="1" parent="1" source="RMPpi373Yn2uEKMOpAx1-28" target="RMPpi373Yn2uEKMOpAx1-24">
          <mxGeometry relative="1" as="geometry" />
        </mxCell>
        <mxCell id="RMPpi373Yn2uEKMOpAx1-28" value="&lt;table border=&quot;1&quot; width=&quot;100%&quot; cellpadding=&quot;4&quot; style=&quot;width: 100% ; height: 100% ; border-collapse: collapse&quot;&gt;&lt;tbody&gt;&lt;tr&gt;&lt;th align=&quot;center&quot;&gt;Pistol&lt;/th&gt;&lt;/tr&gt;&lt;tr&gt;&lt;td&gt;&lt;div&gt;&lt;/div&gt;&lt;/td&gt;&lt;/tr&gt;&lt;tr&gt;&lt;td&gt;&amp;gt;&amp;gt;&amp;gt; sound()&lt;/td&gt;&lt;/tr&gt;&lt;/tbody&gt;&lt;/table&gt;" style="text;html=1;strokeColor=none;fillColor=none;overflow=fill;" vertex="1" parent="1">
          <mxGeometry x="71" y="350" width="130" height="80" as="geometry" />
        </mxCell>
        <mxCell id="RMPpi373Yn2uEKMOpAx1-59" style="edgeStyle=orthogonalEdgeStyle;shape=connector;rounded=0;orthogonalLoop=1;jettySize=auto;html=1;labelBackgroundColor=default;fontFamily=Helvetica;fontSize=11;fontColor=default;endArrow=classic;strokeColor=default;" edge="1" parent="1" source="RMPpi373Yn2uEKMOpAx1-29" target="RMPpi373Yn2uEKMOpAx1-26">
          <mxGeometry relative="1" as="geometry" />
        </mxCell>
        <mxCell id="RMPpi373Yn2uEKMOpAx1-29" value="&lt;table border=&quot;1&quot; width=&quot;100%&quot; cellpadding=&quot;4&quot; style=&quot;width: 100% ; height: 100% ; border-collapse: collapse&quot;&gt;&lt;tbody&gt;&lt;tr&gt;&lt;th align=&quot;center&quot;&gt;Marksman&lt;/th&gt;&lt;/tr&gt;&lt;tr&gt;&lt;td&gt;&lt;div&gt;&lt;/div&gt;&lt;/td&gt;&lt;/tr&gt;&lt;tr&gt;&lt;td&gt;&lt;br&gt;&lt;/td&gt;&lt;/tr&gt;&lt;/tbody&gt;&lt;/table&gt;" style="text;html=1;strokeColor=none;fillColor=none;overflow=fill;" vertex="1" parent="1">
          <mxGeometry x="126" y="602" width="140" height="70" as="geometry" />
        </mxCell>
        <mxCell id="RMPpi373Yn2uEKMOpAx1-60" style="edgeStyle=orthogonalEdgeStyle;shape=connector;rounded=0;orthogonalLoop=1;jettySize=auto;html=1;entryX=0.5;entryY=1;entryDx=0;entryDy=0;labelBackgroundColor=default;fontFamily=Helvetica;fontSize=11;fontColor=default;endArrow=classic;strokeColor=default;" edge="1" parent="1" source="RMPpi373Yn2uEKMOpAx1-30" target="RMPpi373Yn2uEKMOpAx1-26">
          <mxGeometry relative="1" as="geometry" />
        </mxCell>
        <mxCell id="RMPpi373Yn2uEKMOpAx1-30" value="&lt;table border=&quot;1&quot; width=&quot;100%&quot; cellpadding=&quot;4&quot; style=&quot;width: 100% ; height: 100% ; border-collapse: collapse&quot;&gt;&lt;tbody&gt;&lt;tr&gt;&lt;th align=&quot;center&quot;&gt;Tactical&lt;/th&gt;&lt;/tr&gt;&lt;tr&gt;&lt;td&gt;&lt;div&gt;&lt;/div&gt;&lt;/td&gt;&lt;/tr&gt;&lt;tr&gt;&lt;td&gt;&lt;br&gt;&lt;/td&gt;&lt;/tr&gt;&lt;/tbody&gt;&lt;/table&gt;" style="text;html=1;strokeColor=none;fillColor=none;overflow=fill;" vertex="1" parent="1">
          <mxGeometry x="296" y="602" width="140" height="70" as="geometry" />
        </mxCell>
        <mxCell id="RMPpi373Yn2uEKMOpAx1-43" value="" style="edgeStyle=orthogonalEdgeStyle;rounded=0;orthogonalLoop=1;jettySize=auto;html=1;" edge="1" parent="1" source="RMPpi373Yn2uEKMOpAx1-31" target="RMPpi373Yn2uEKMOpAx1-25">
          <mxGeometry relative="1" as="geometry" />
        </mxCell>
        <mxCell id="RMPpi373Yn2uEKMOpAx1-31" value="&lt;table border=&quot;1&quot; width=&quot;100%&quot; cellpadding=&quot;4&quot; style=&quot;width: 100% ; height: 100% ; border-collapse: collapse&quot;&gt;&lt;tbody&gt;&lt;tr&gt;&lt;th align=&quot;center&quot;&gt;Axe&lt;br&gt;&lt;/th&gt;&lt;/tr&gt;&lt;tr&gt;&lt;td&gt;&lt;div&gt;&lt;/div&gt;&lt;/td&gt;&lt;/tr&gt;&lt;tr&gt;&lt;td&gt;&amp;gt;&amp;gt;&amp;gt; sound()&lt;/td&gt;&lt;/tr&gt;&lt;/tbody&gt;&lt;/table&gt;" style="text;html=1;strokeColor=none;fillColor=none;overflow=fill;" vertex="1" parent="1">
          <mxGeometry x="660" y="195" width="140" height="90" as="geometry" />
        </mxCell>
        <mxCell id="RMPpi373Yn2uEKMOpAx1-45" value="" style="endArrow=none;dashed=1;html=1;dashPattern=1 3;strokeWidth=2;rounded=0;exitX=1;exitY=0.5;exitDx=0;exitDy=0;entryX=0;entryY=0.5;entryDx=0;entryDy=0;" edge="1" parent="1" source="RMPpi373Yn2uEKMOpAx1-27" target="RMPpi373Yn2uEKMOpAx1-23">
          <mxGeometry width="50" height="50" relative="1" as="geometry">
            <mxPoint x="553" y="530" as="sourcePoint" />
            <mxPoint x="603" y="480" as="targetPoint" />
          </mxGeometry>
        </mxCell>
      </root>
    </mxGraphModel>
  </diagram>
</mxfile>
